<?xml version="1.0" encoding="utf-8"?>
<!-- Generator: Adobe Illustrator 16.0.0, SVG Export Plug-In . SVG Version: 6.00 Build 0)  -->
<!DOCTYPE svg PUBLIC "-//W3C//DTD SVG 1.1//EN" "http://www.w3.org/Graphics/SVG/1.1/DTD/svg11.dtd">
<svg version="1.1" id="Layer_1" xmlns="http://www.w3.org/2000/svg" xmlns:xlink="http://www.w3.org/1999/xlink" x="0px" y="0px"
	 width="2106.21px" height="576.058px" viewBox="0 0 2106.21 576.058" enable-background="new 0 0 2106.21 576.058"
	 xml:space="preserve">
<g id="XMLID_1_">
	<path fill="#FFFFFF" d="M925.488,457.279h-15.211V127.86h15.211V457.279z"/>
	<path fill="#FFFFFF" d="M975.031,372.968c0-12.168,2.24-23.61,6.736-34.332c4.488-10.716,10.647-20.06,18.47-28.031
		c7.822-7.966,17.017-14.192,27.597-18.688c10.572-4.489,21.946-6.736,34.115-6.736c9.269,0,17.886,1.304,25.858,3.911
		c7.965,2.607,15.136,6.084,21.512,10.43c6.369,4.347,11.877,9.345,16.515,14.994c4.631,5.649,8.107,11.517,10.43,17.601
		c0-7.238,0.218-14.483,0.652-21.729c0.435-7.238,0.794-14.342,1.086-21.295h13.473v168.187c0,11.008-1.596,21.363-4.78,31.073
		c-3.191,9.703-8.258,18.253-15.211,25.641s-16.012,13.255-27.162,17.601c-11.156,4.347-24.846,6.52-41.068,6.52
		c-13.33,0-26.008-2.465-38.026-7.389c-12.026-4.93-24.989-14.056-38.896-27.379l9.562-10.43
		c6.369,6.369,12.528,11.517,18.47,15.428c5.935,3.911,11.659,6.953,17.166,9.126c5.501,2.173,10.79,3.694,15.863,4.563
		c5.065,0.869,10.213,1.304,15.428,1.304c13.614,0,25.057-1.671,34.332-4.998c9.27-3.334,16.732-8.04,22.382-14.124
		s9.778-13.255,12.386-21.512c2.607-8.258,4.054-17.459,4.346-27.597v-18.688c0-0.577,0.068-2.023,0.218-4.346
		c0.143-2.315,0.217-4.78,0.217-7.389c0-2.607,0.068-5.065,0.218-7.388c0.143-2.315,0.217-3.762,0.217-4.346
		c-5.799,13.33-15.21,24.555-28.248,33.681s-28.683,13.689-46.936,13.689c-12.169,0-23.543-2.247-34.115-6.736
		c-10.58-4.488-19.774-10.715-27.597-18.688c-7.822-7.965-13.981-17.233-18.47-27.813
		C977.271,396.511,975.031,385.137,975.031,372.968z M990.242,372.968c0,10.146,1.881,19.631,5.649,28.466
		c3.762,8.841,8.909,16.515,15.428,23.033s14.267,11.666,23.251,15.428c8.977,3.769,18.537,5.649,28.683,5.649
		c10.138,0,19.699-1.881,28.683-5.649c8.978-3.762,16.731-8.909,23.251-15.428c6.519-6.519,11.659-14.192,15.428-23.033
		c3.762-8.835,5.649-18.32,5.649-28.466c0-10.138-1.888-19.699-5.649-28.683c-3.769-8.978-8.909-16.731-15.428-23.251
		c-6.52-6.519-14.273-11.659-23.251-15.428c-8.983-3.762-18.545-5.65-28.683-5.65c-10.146,0-19.706,1.889-28.683,5.65
		c-8.984,3.769-16.732,8.909-23.251,15.428c-6.519,6.52-11.666,14.273-15.428,23.251
		C992.123,353.269,990.242,362.831,990.242,372.968z"/>
	<path fill="#FFFFFF" d="M1199.275,372.968c0-12.168,2.315-23.61,6.953-34.332c4.631-10.716,10.933-20.06,18.904-28.031
		c7.966-7.966,17.31-14.267,28.031-18.905c10.716-4.631,22.164-6.953,34.333-6.953c12.168,0,23.61,2.322,34.332,6.953
		c10.716,4.639,20.06,10.939,28.031,18.905c7.966,7.972,14.267,17.315,18.905,28.031c4.631,10.722,6.953,22.164,6.953,34.332
		c0,12.169-2.322,23.543-6.953,34.115c-4.639,10.58-10.939,19.774-18.905,27.597c-7.972,7.822-17.315,14.057-28.031,18.688
		c-10.722,4.631-22.313,6.953-34.767,6.953c-12.169,0-23.617-2.247-34.333-6.736c-10.722-4.488-19.991-10.647-27.813-18.47
		s-14.057-17.017-18.688-27.597C1201.59,396.946,1199.275,385.429,1199.275,372.968z M1214.486,372.968
		c0,10.146,1.881,19.631,5.649,28.466c3.762,8.841,8.909,16.515,15.428,23.033s14.192,11.666,23.033,15.428
		c8.834,3.769,18.32,5.649,28.466,5.649c10.138,0,19.624-1.881,28.466-5.649c8.834-3.762,16.582-8.909,23.25-15.428
		c6.662-6.519,11.877-14.192,15.646-23.033c3.762-8.835,5.649-18.32,5.649-28.466c0-10.138-1.888-19.624-5.649-28.466
		c-3.769-8.834-8.983-16.582-15.646-23.25c-6.668-6.662-14.416-11.877-23.25-15.646c-8.842-3.762-18.328-5.65-28.466-5.65
		c-10.146,0-19.632,1.889-28.466,5.65c-8.841,3.769-16.515,8.983-23.033,15.646c-6.519,6.668-11.666,14.416-15.428,23.25
		C1216.367,353.344,1214.486,362.831,1214.486,372.968z"/>
	<path fill="#F37041" d="M1423.083,289.092h12.604c0,1.162,0.068,3.912,0.217,8.258c0.144,4.346,0.218,8.983,0.218,13.906
		c0,4.93,0.068,9.493,0.218,13.689c0.143,4.204,0.217,6.736,0.217,7.605c6.084-13.906,15.496-25.206,28.248-33.898
		c12.746-8.691,27.522-13.037,44.328-13.037c16.223,0,29.043,4.639,38.462,13.906c9.411,9.276,14.409,21.296,14.993,36.071v121.686
		h-15.211V338.202c-0.584-10.139-4.203-18.83-10.864-26.076c-6.669-7.238-16.372-11.149-29.118-11.733
		c-9.561,0-18.545,1.596-26.944,4.78c-8.406,3.191-15.72,7.537-21.946,13.038c-6.234,5.507-11.231,12.168-14.994,19.991
		c-3.769,7.822-5.649,16.229-5.649,25.206v93.871h-14.776V289.092z"/>
	<path fill="#F37041" d="M1608.646,372.968c0-12.168,2.315-23.61,6.953-34.332c4.631-10.716,10.933-20.06,18.904-28.031
		c7.966-7.966,17.31-14.267,28.031-18.905c10.716-4.631,22.164-6.953,34.333-6.953c12.168,0,23.61,2.322,34.332,6.953
		c10.716,4.639,20.06,10.939,28.031,18.905c7.966,7.972,14.267,17.315,18.905,28.031c4.631,10.722,6.953,22.164,6.953,34.332
		c0,12.169-2.322,23.543-6.953,34.115c-4.639,10.58-10.939,19.774-18.905,27.597c-7.972,7.822-17.315,14.057-28.031,18.688
		c-10.722,4.631-22.313,6.953-34.767,6.953c-12.169,0-23.617-2.247-34.333-6.736c-10.722-4.488-19.991-10.647-27.813-18.47
		s-14.057-17.017-18.688-27.597C1610.961,396.946,1608.646,385.429,1608.646,372.968z M1623.857,372.968
		c0,10.146,1.881,19.631,5.649,28.466c3.762,8.841,8.909,16.515,15.428,23.033s14.192,11.666,23.033,15.428
		c8.834,3.769,18.32,5.649,28.466,5.649c10.138,0,19.624-1.881,28.466-5.649c8.834-3.762,16.582-8.909,23.25-15.428
		c6.662-6.519,11.877-14.192,15.646-23.033c3.762-8.835,5.649-18.32,5.649-28.466c0-10.138-1.888-19.624-5.649-28.466
		c-3.769-8.834-8.983-16.582-15.646-23.25c-6.668-6.662-14.416-11.877-23.25-15.646c-8.842-3.762-18.328-5.65-28.466-5.65
		c-10.146,0-19.632,1.889-28.466,5.65c-8.841,3.769-16.515,8.983-23.033,15.646c-6.519,6.668-11.666,14.416-15.428,23.25
		C1625.738,353.344,1623.857,362.831,1623.857,372.968z"/>
	<path fill="#F37041" d="M1911.984,298.219c-3.191-4.924-7.388-11.367-12.604-19.34c-5.215-7.965-10.864-16.799-16.948-26.51
		c-6.085-9.703-12.535-19.699-19.34-29.987c-6.811-10.281-13.255-20.208-19.339-29.769c-6.084-9.561-11.734-18.321-16.949-26.293
		c-5.215-7.965-9.418-14.409-12.603-19.339h36.505c4.346,6.954,9.921,15.795,16.732,26.51c6.804,10.722,13.906,21.879,21.295,33.463
		c7.388,11.591,14.483,22.816,21.294,33.68c6.805,10.865,12.529,19.774,17.167,26.728l5.215,10.431l5.215-10.431
		c4.346-6.953,9.847-15.862,16.515-26.728c6.661-10.864,13.615-22.089,20.86-33.68c7.238-11.584,14.192-22.741,20.86-33.463
		c6.661-10.715,12.169-19.557,16.515-26.51h35.201l-96.913,152.541c3.477,5.216,7.891,12.026,13.255,20.427
		c5.357,8.406,11.299,17.601,17.818,27.596c6.519,9.996,13.255,20.358,20.208,31.073c6.954,10.723,13.689,21.078,20.209,31.073
		c6.519,9.996,12.453,19.122,17.817,27.38c5.358,8.257,9.778,14.993,13.256,20.208h-36.94l-70.838-111.255
		c-2.03-2.893-4.563-7.021-7.605-12.386c-3.042-5.357-5.725-9.629-8.04-12.82c-0.869,2.03-1.813,4.061-2.825,6.084
		c-1.019,2.03-1.813,3.334-2.39,3.911l-78.227,126.466h-36.506c3.478-5.215,7.891-12.02,13.255-20.426
		c5.358-8.399,11.3-17.669,17.818-27.813c6.52-10.139,13.255-20.568,20.209-31.291c6.953-10.715,13.614-21.146,19.991-31.29
		c6.369-10.139,12.311-19.407,17.817-27.813C1904.447,310.245,1908.792,303.434,1911.984,298.219z"/>
</g>
<g>
	<path fill="#FFFFFF" d="M588.943,455.253c4.42-10.905,10.311-25.049,17.68-42.433c7.362-17.39,15.318-36.541,23.868-57.46
		c8.543-20.927,17.383-42.654,26.521-65.196c9.13-22.543,17.97-44.201,26.52-64.975c8.543-20.774,16.5-39.933,23.869-57.461
		c7.362-17.535,13.26-31.749,17.68-42.654c4.42,10.905,10.311,25.119,17.68,42.654c7.362,17.528,15.318,36.687,23.869,57.461
		c8.543,20.773,17.459,42.432,26.741,64.975c9.282,22.542,18.191,44.27,26.741,65.196c8.543,20.919,16.423,40.07,23.647,57.46
		c7.217,17.384,13.184,31.527,17.901,42.433h-30.499c-4.13-10.021-8.916-21.81-14.365-35.36
		c-5.456-13.557-11.271-27.998-17.459-43.316c-6.188-15.325-12.528-31.161-19.006-47.516c-6.485-16.354-12.818-32.197-19.007-47.516
		c-6.188-15.325-12.01-29.766-17.459-43.316c-5.456-13.557-10.242-25.346-14.365-35.36l-4.42-14.145l-4.42,14.145
		c-4.13,10.014-8.916,21.803-14.365,35.36c-5.456,13.551-11.271,27.991-17.459,43.316c-6.188,15.318-12.528,31.161-19.006,47.516
		c-6.485,16.354-12.818,32.19-19.006,47.516c-6.188,15.318-12.01,29.76-17.459,43.316c-5.456,13.551-10.242,25.34-14.365,35.36
		H588.943z"/>
</g>
<polygon fill="#F37041" points="211.706,33.874 70.55,549.799 548.332,28.637 145.932,420.287 233.198,105.829 548.32,449.286 "/>
<g>
</g>
<g>
</g>
<g>
</g>
<g>
</g>
<g>
</g>
<g>
</g>
</svg>
